# xmcd
#
# Track frame offsets: 
#        150
#        12257
#        22237
#        34855
#        47847
#        61095
#        74210
#        85830
#        98432
#        109242
#        120912
#        132872
#        145620
#        161665
#        176050
#        184337
#        207080
#        218505
#        232115
#        246917
#        260847
#        274507
#
# Disc length: 3805 seconds
#
# Revision: 0
# Processed by: cddbd v1.4PL0 Copyright (c) Steve Scherf et al.
# Submitted via: ExactAudioCopy v0.90b4
#
DISCID=3f0edb16
DTITLE=Elmore James - The Complete Fire And Enjoy Recordings [CD1]
DYEAR=1995
DGENRE=Blues
TTITLE0=Make My Dreams Come True
TTITLE1=Bobby's Rock
TTITLE2=The Sky Is Crying
TTITLE3=Held My Baby Last Night
TTITLE4=Dust My Broom
TTITLE5=Baby Please Set A Date
TTITLE6=Rollin' and Tumblin'
TTITLE7=I'm Worried
TTITLE8=Done Somebody Wrong
TTITLE9=Fine Little Mama
TTITLE10=I Can't Stop Lovin' You
TTITLE11=Early One Morning
TTITLE12=I Need You Baby
TTITLE13=Strange Angels
TTITLE14=She Done Moved (instrumental)
TTITLE15=Something Inside Me
TTITLE16=You Don't Have To Go (vocal: Sam Myers)
TTITLE17=Stranger Blues
TTITLE18=Stranger Blues (alternate take)
TTITLE19=My Bleeding Heart
TTITLE20=Standing At The Crossroads
TTITLE21=One Way Out
EXTD=
EXTT0=
EXTT1=
EXTT2=
EXTT3=
EXTT4=
EXTT5=
EXTT6=
EXTT7=
EXTT8=
EXTT9=
EXTT10=
EXTT11=
EXTT12=
EXTT13=
EXTT14=
EXTT15=
EXTT16=
EXTT17=
EXTT18=
EXTT19=
EXTT20=
EXTT21=
PLAYORDER=
